<svg width="1777" height="518" viewBox="0 0 1777 518" fill="none" xmlns="http://www.w3.org/2000/svg">
<path d="M611.52 173.64H643.44L708.96 345H678.96L663.36 302.04H591.6L576 345H546L611.52 173.64ZM600 279H654.96L628.08 203.88H627.12L600 279ZM800.091 170.28C822.171 170.28 839.451 175.08 852.171 184.92C864.411 194.52 872.091 208.68 875.211 227.88H846.891C844.491 216.84 839.211 208.68 831.531 203.16C823.611 197.64 813.051 195 800.091 195C784.011 195 771.291 200.28 761.931 211.32C751.611 222.84 746.571 238.92 746.571 260.04C746.571 280.2 751.131 295.8 760.251 306.6C770.091 318.12 785.451 323.88 806.331 323.88C814.491 323.88 822.171 322.92 829.371 321C836.091 319.08 842.091 316.44 847.851 313.08V277.8H802.491V253.8H875.931V326.28C866.811 333.48 856.491 338.76 844.731 342.6C832.251 346.44 818.571 348.36 803.211 348.36C775.851 348.36 754.731 339.72 739.611 322.44C725.451 306.36 718.491 285.48 718.491 260.04C718.491 234.36 725.451 213.24 739.611 196.68C754.491 178.92 774.651 170.28 800.091 170.28ZM907.097 173.64H935.177V345H907.097V173.64ZM963.938 271.56H1085.14V294.12H963.938V271.56ZM1114.05 173.64H1237.65V197.64H1142.13V245.16H1231.89V269.16H1142.13V321H1241.73V345H1114.05V173.64ZM1252.43 220.92H1282.19L1311.95 310.92L1341.71 220.92H1371.47L1325.63 345H1298.27L1252.43 220.92ZM1443.44 217.56C1461.68 217.56 1475.36 222.12 1484 231.24C1491.68 239.16 1495.52 250.68 1495.52 265.8V345H1470.08V328.68C1465.28 334.92 1459.28 339.48 1452.32 342.84C1444.4 346.44 1435.04 348.36 1424.24 348.36C1411.28 348.36 1401.2 345 1393.76 338.52C1386.08 331.8 1382.24 323.4 1382.24 313.08C1382.24 299.16 1387.52 288.36 1398.56 280.92C1408.64 273.72 1422.8 269.88 1441.04 269.4L1468.16 268.68V263.88C1468.16 247.56 1459.28 239.64 1441.52 239.64C1433.84 239.64 1427.84 240.84 1423.28 243.72C1418 246.84 1414.4 251.64 1412.96 258.12L1385.84 255.96C1388.48 242.28 1395.2 232.2 1406 225.96C1415.12 220.2 1427.6 217.56 1443.44 217.56ZM1468.16 288.36L1442.96 289.08C1421.12 289.56 1410.32 297.24 1410.32 312.12C1410.32 316.44 1412 320.04 1415.84 322.92C1419.68 325.8 1424.48 327.48 1430.48 327.48C1441.04 327.48 1449.92 324.36 1457.12 318.36C1464.32 312.12 1468.16 304.2 1468.16 294.6V288.36ZM1526.78 170.28H1554.14V345H1526.78V170.28Z" fill="url(#paint0_linear_8679_19130)"/>
<g clip-path="url(#clip0_8679_19130)">
<path d="M357.791 125.432L351.001 129.35C349.821 130.03 348.971 131.163 348.646 132.486C348.32 133.808 348.548 135.205 349.276 136.356L358.776 151.356C359.944 153.199 362.17 154.073 364.279 153.515L377.374 150.048L388.062 171.07L378.143 175.038C376.895 175.538 375.9 176.518 375.384 177.759C374.867 179 374.873 180.397 375.397 181.634L382.397 198.134C383.444 200.6 386.248 201.803 388.756 200.863L395.691 198.261L401.662 218.981L392.305 224.97C390.444 226.161 389.586 228.431 390.192 230.555L396.307 251.957L290.162 342.181H258.5C257.241 342.181 256.032 342.655 255.111 343.504L254.932 343.679L225.401 373.768H170C168.728 373.768 167.507 374.252 166.583 375.117L166.402 375.296L132.525 410.4C125.062 406.27 115.029 407.901 109.556 414.928C103.875 422.222 104.675 431.917 110.875 438.444C118.281 446.239 131.948 445.917 138.529 436.961C142.913 430.996 143.195 423.436 139.655 417.411L172.123 383.768H215.588L134.713 466.172L64.6289 439.777L79.1211 355.627L86.0645 349.695L150.867 357.96C152.303 358.143 153.747 357.695 154.827 356.732L195.656 320.329C203.041 323.899 212.109 322.253 217.763 315.792C224.396 308.211 223.967 296.643 216.345 289.784C209.179 283.334 198.83 283.483 191.701 289.742C184.823 295.782 183.656 306.091 188.2 313.579L149.872 347.751L96.3291 340.922L215.248 239.301C216.144 238.536 216.74 237.478 216.933 236.316L223.122 198.871L294.002 141.501L339.23 109.964L357.791 125.432Z" fill="#8A68FF" stroke="#8A68FF" stroke-width="10" stroke-linecap="round" stroke-linejoin="round"/>
<path d="M91 342.5L153.5 354.181L199.5 310" stroke="white" stroke-width="10" stroke-linecap="round" stroke-linejoin="round"/>
<circle cx="204" cy="304.181" r="15.5" fill="white" stroke="white" stroke-width="3"/>
<circle cx="124" cy="426.181" r="15.5" fill="white" stroke="white" stroke-width="3"/>
<path d="M225.5 378.681H169.5L130 420" stroke="white" stroke-width="10" stroke-linecap="round" stroke-linejoin="round"/>
<path d="M464 466.5L315 338L310 333.181L386 267L464 324.444V466.5Z" fill="black" stroke="white" stroke-width="10" stroke-linecap="round" stroke-linejoin="round"/>
<path d="M201.5 241L165.5 273C165.5 273 161.516 264.716 160.5 259C159.131 251.301 161.5 239 161.5 239C161.5 239 160.121 229.859 160.5 224C161.13 214.257 167.5 200 167.5 200C167.5 200 167.405 189.771 169 183.5C171.153 175.037 179 163.5 179 163.5C179 163.5 181.134 152.324 184.5 146C187.638 140.104 195 132.5 195 132.5L219.5 126L259 132.5L274 141C274 141 280.083 148.355 279 153.5C278.275 156.945 276.508 158.529 274 161C270.392 164.555 262.5 167 262.5 167L286.5 172.5L292.5 179C292.5 179 294.829 187.21 292.5 191.5C290.507 195.173 284 198 284 198L269.5 200L277.5 209.5C277.5 209.5 279.631 216.77 277.5 220.5C275.117 224.67 266.5 226 266.5 226L249 224C249 224 253.039 234.743 250.5 236.5L244 241H201.5Z" fill="black"/>
<path d="M262.5 167C262.5 167 270.392 164.555 274 161C276.508 158.529 278.275 156.945 279 153.5C280.083 148.355 274 141 274 141L259 132.5L219.5 126L195 132.5C195 132.5 187.638 140.104 184.5 146C181.134 152.324 179 163.5 179 163.5C179 163.5 171.153 175.037 169 183.5C167.405 189.771 167.5 200 167.5 200C167.5 200 161.13 214.257 160.5 224C160.121 229.859 161.5 239 161.5 239C161.5 239 159.131 251.301 160.5 259C161.516 264.716 165.5 273 165.5 273L201.5 241H244C246.539 239.243 247.962 238.257 250.5 236.5C253.039 234.743 249 224 249 224L266.5 226C266.5 226 275.117 224.67 277.5 220.5C279.631 216.77 277.5 209.5 277.5 209.5L269.5 200L284 198C284 198 290.507 195.173 292.5 191.5C294.829 187.21 292.5 179 292.5 179L286.5 172.5L262.5 167ZM262.5 167L238 161L218 155L195 161M179 229.5L201.5 214L228 216.5M184.5 195.5L214 183.5L249 191.5" stroke="white" stroke-width="10"/>
<path d="M275.911 95.181C282.411 96.681 313.411 116.181 313.411 116.181L316.5 120L285.5 139L282.326 133.681C282.326 133.681 276.826 126.681 270.326 129.181C263.826 131.681 258.499 139 258.499 139C258.499 139 250 149 239 142C228 135 234.999 124.5 234.999 124.5C234.999 124.5 245.411 103.681 253.911 98.181C262.411 92.681 269.411 93.681 275.911 95.181Z" fill="black" stroke="white" stroke-width="10" stroke-linecap="round" stroke-linejoin="round"/>
</g>
<defs>
<linearGradient id="paint0_linear_8679_19130" x1="1571" y1="259" x2="1562.13" y2="353.962" gradientUnits="userSpaceOnUse">
<stop stop-color="#464271"/>
<stop offset="1" stop-color="#6E62E9"/>
</linearGradient>
<clipPath id="clip0_8679_19130">
<rect width="399" height="427" fill="white" transform="translate(71 46)"/>
</clipPath>
</defs>
</svg>
